<?xml version="1.0" encoding="UTF-8"?>
<svg width="144px" height="113px" viewBox="0 0 144 113" version="1.1" xmlns="http://www.w3.org/2000/svg" xmlns:xlink="http://www.w3.org/1999/xlink">
    <!-- Generator: Sketch 58 (84663) - https://sketch.com -->
    <title>dumbbell</title>
    <desc>Created with Sketch.</desc>
    <g id="dumbbell" stroke="none" stroke-width="1" fill="none" fill-rule="evenodd">
        <path d="M0.679245283,112.143939 L143.320755,112.143939" id="Path" stroke="#767676"></path>
        <path d="M10.0681342,89.3 L10.0681342,11.0619048" id="Line" stroke="#EDEEEF" stroke-width="4"></path>
        <path d="M22.8413208,95.5460317 L22.8413208,17.8" id="Line-Copy" stroke="#EDEEEF" stroke-width="4"></path>
        <path d="M35.6145073,79.9207317 L35.6145073,29.9280488" id="Line-Copy-2" stroke="#EDEEEF" stroke-width="4"></path>
        <path d="M61.1608805,89.3 L61.1608805,29.925" id="Line-Copy-3" stroke="#EDEEEF" stroke-width="4"></path>
        <path d="M73.9340671,76.2870813 L73.9340671,29.4315789" id="Line-Copy-5" stroke="#EDEEEF" stroke-width="4"></path>
        <path d="M86.7072537,82.658351 L86.7072537,30.427907" id="Line-Copy-6" stroke="#EDEEEF" stroke-width="4"></path>
        <path d="M99.4804403,85.7350207 L99.4804403,30.9306818" id="Line-Copy-7" stroke="#EDEEEF" stroke-width="4"></path>
        <path d="M112.253627,86.2672304 L112.253627,33.427907" id="Line-Copy-8" stroke="#EDEEEF" stroke-width="4"></path>
        <path d="M125.026813,82.9980952 L125.026813,40.4285714" id="Line-Copy-9" stroke="#EDEEEF" stroke-width="4"></path>
        <path d="M137.8,72.2882353 L137.8,52.4323529" id="Line-Copy-10" stroke="#EDEEEF" stroke-width="4"></path>
        <path d="M48.3876939,88.9140938 L48.3876939,23.9273585" id="Line-Copy-4" stroke="#EDEEEF" stroke-width="4"></path>
        <circle id="Oval-Copy-5" fill="#000000" fill-rule="nonzero" cx="35.6145073" cy="29.8" r="3"></circle>
        <circle id="Oval-Copy-6" fill="#000000" fill-rule="nonzero" cx="48.3876939" cy="24.8" r="3"></circle>
        <circle id="Oval-Copy-7" fill="#000000" fill-rule="nonzero" cx="61.1608805" cy="29.8" r="3"></circle>
        <circle id="Oval-Copy-8" fill="#000000" fill-rule="nonzero" cx="73.9340671" cy="29.8" r="3"></circle>
        <circle id="Oval-Copy-9" fill="#000000" fill-rule="nonzero" cx="86.7072537" cy="29.8" r="3"></circle>
        <circle id="Oval-Copy-10" fill="#000000" fill-rule="nonzero" cx="99.4804403" cy="31.3" r="3"></circle>
        <circle id="Oval-Copy-11" fill="#000000" fill-rule="nonzero" cx="112.253627" cy="32.8" r="3"></circle>
        <circle id="Oval-Copy-12" fill="#000000" fill-rule="nonzero" cx="125.026813" cy="40.3" r="3"></circle>
        <circle id="Oval-Copy-13" fill="#000000" fill-rule="nonzero" cx="137.8" cy="52.8" r="3"></circle>
        <circle id="Oval-Copy-16" fill="#0051DC" fill-rule="nonzero" cx="137.8" cy="71.8" r="3"></circle>
        <circle id="Oval-Copy-17" fill="#0051DC" fill-rule="nonzero" cx="10.0681342" cy="88.8" r="3"></circle>
        <circle id="Oval-Copy-18" fill="#0051DC" fill-rule="nonzero" cx="22.8413208" cy="94.8" r="3"></circle>
        <circle id="Oval-Copy-19" fill="#0051DC" fill-rule="nonzero" cx="35.6145073" cy="79.3" r="3"></circle>
        <circle id="Oval-Copy-20" fill="#0051DC" fill-rule="nonzero" cx="48.3876939" cy="88.8" r="3"></circle>
        <circle id="Oval-Copy-21" fill="#0051DC" fill-rule="nonzero" cx="61.1608805" cy="89.3" r="3"></circle>
        <circle id="Oval-Copy-22" fill="#0051DC" fill-rule="nonzero" cx="73.9340671" cy="76.8" r="3"></circle>
        <circle id="Oval-Copy-23" fill="#0051DC" fill-rule="nonzero" cx="86.7072537" cy="82.3" r="3"></circle>
        <circle id="Oval-Copy-24" fill="#0051DC" fill-rule="nonzero" cx="99.4804403" cy="86.3" r="3"></circle>
        <circle id="Oval-Copy-25" fill="#0051DC" fill-rule="nonzero" cx="112.253627" cy="85.8" r="3"></circle>
        <circle id="Oval-Copy-26" fill="#0051DC" fill-rule="nonzero" cx="125.026813" cy="82.3" r="3"></circle>
        <circle id="Oval-Copy-14" fill="#000000" fill-rule="nonzero" cx="10.0681342" cy="11.3" r="3"></circle>
        <circle id="Oval-Copy-15" fill="#000000" fill-rule="nonzero" cx="22.8413208" cy="17.8" r="3"></circle>
        <path d="M0.679245283,112.143939 L0.679245283,0.856060606" id="Path" stroke="#EDEEEF"></path>
    </g>
</svg>