<?xml version="1.0" encoding="UTF-8"?>
<svg width="144px" height="113px" viewBox="0 0 144 113" version="1.1" xmlns="http://www.w3.org/2000/svg" xmlns:xlink="http://www.w3.org/1999/xlink">
    <!-- Generator: Sketch 58 (84663) - https://sketch.com -->
    <title>scatter-plot</title>
    <desc>Created with Sketch.</desc>
    <g id="scatter-plot" stroke="none" stroke-width="1" fill="none" fill-rule="evenodd">
        <g id="visa-charts-library-(1)">
            <path d="M0.679245283,112.143939 L143.320755,112.143939" id="Path" stroke="#767676"></path>
            <path d="M0.679245283,112.143939 L0.679245283,0.856060606" id="Path" stroke="#767676"></path>
            <polygon id="Path" fill="#363636" fill-rule="nonzero" style="mix-blend-mode: multiply;" points="16.8867925 81.0840496 16.8677876 81.5039257 16.8077159 81.9216731 16.6993528 82.3269759 16.54632 82.7159377 16.3521386 83.0850679 16.1246524 83.437442 15.8610664 83.7633106 15.5648418 84.0596849 15.2394405 84.3237378 14.8883968 84.552771 14.5143975 84.7403287 14.1231976 84.8893239 13.7186812 84.9976773 13.3050341 85.0633375 12.8867928 85.0840496 12.4685997 85.0624475 12.054933 84.9974303 11.6503902 84.8893024 11.2594902 84.7391593 10.8865319 84.5487682 10.535547 84.3203856 10.2102719 84.0566699 9.91417244 83.7605705 9.65045574 83.4352943 9.42207435 83.084311 9.23168233 82.7113517 9.08153966 82.3204528 8.97341207 81.9159109 8.90839461 81.5022431 8.88679245 81.0840502 8.90579727 80.6641743 8.96586922 80.2464265 9.07423189 79.841124 9.2272642 79.4521623 9.4214454 79.0830321 9.64893201 78.7306578 9.91251829 78.4047892 10.2087431 78.1084144 10.5341442 77.8443615 10.8851874 77.6153283 11.2591874 77.4277706 11.6503873 77.2787754 12.0549029 77.170422 12.4685501 77.1047618 12.8867924 77.0840496 13.3049851 77.1056518 13.7186531 77.1706693 14.1231957 77.2787971 14.5140965 77.4289407 14.8870545 77.619332 15.2380376 77.8477137 15.5633149 78.1114313 15.8594141 78.4075307 16.1231292 78.7328052 16.351512 79.0837907 16.5419026 79.4567487 16.6920452 79.8476477 16.8001731 80.2521905 16.8651905 80.6658584"></polygon>
            <polygon id="Path" fill="#363636" fill-rule="nonzero" style="mix-blend-mode: multiply;" points="22.8301887 100.730905 22.8111839 101.150781 22.7511122 101.568529 22.642749 101.973831 22.4897162 102.362793 22.2955348 102.731923 22.0680486 103.084297 21.8044626 103.410166 21.508238 103.70654 21.1828367 103.970593 20.831793 104.199626 20.4577938 104.387184 20.0665938 104.536179 19.6620774 104.644533 19.2484303 104.710193 18.830189 104.730905 18.4119959 104.709303 17.9983293 104.644286 17.5937864 104.536158 17.2028864 104.386015 16.8299281 104.195624 16.4789433 103.967241 16.1536681 103.703525 15.8575687 103.407426 15.593852 103.08215 15.3654706 102.731166 15.1750786 102.358207 15.0249359 101.967308 14.9168083 101.562766 14.8517908 101.149098 14.8301887 100.730906 14.8491935 100.31103 14.9092654 99.8932819 15.0176281 99.4879794 15.1706604 99.0990177 15.3648416 98.7298875 15.5923282 98.3775131 15.8559145 98.0516445 16.1521394 97.7552697 16.4775404 97.4912169 16.8285836 97.2621836 17.2025836 97.0746259 17.5937835 96.9256308 17.9982991 96.8172774 18.4119463 96.7516172 18.8301887 96.730905 19.2483814 96.7525072 19.6620493 96.8175246 20.0665919 96.9256525 20.4574928 97.0757961 20.8304507 97.2661874 21.1814338 97.494569 21.5067112 97.7582867 21.8028104 98.0543861 22.0665254 98.3796606 22.2949082 98.7306461 22.4852988 99.1036041 22.6354415 99.4945031 22.7435693 99.8990459 22.8085868 100.312714"></polygon>
            <polygon id="Path" fill="#363636" fill-rule="nonzero" style="mix-blend-mode: multiply;" points="55.5188679 66.0137559 55.4998631 66.4336319 55.4397914 66.8513793 55.3314282 67.2566821 55.1783955 67.6456439 54.984214 68.0147742 54.7567279 68.3671482 54.4931418 68.6930168 54.1969173 68.9893912 53.8715159 69.253444 53.5204722 69.4824773 53.146473 69.670035 52.7552731 69.8190301 52.3507567 69.9273835 51.9371096 69.9930437 51.5188683 70.0137559 51.1006752 69.9921537 50.6870085 69.9271365 50.2824657 69.8190087 49.8915656 69.6688655 49.5186073 69.4784744 49.1676225 69.2500919 48.8423473 68.9863761 48.5462479 68.6902767 48.2825312 68.3650006 48.0541498 68.0140172 47.8637578 67.6410579 47.7136151 67.250159 47.6054875 66.8456171 47.5404701 66.4319493 47.5188679 66.0137565 47.5378727 65.5938805 47.5979447 65.1761327 47.7063074 64.7708302 47.8593397 64.3818686 48.0535209 64.0127383 48.2810075 63.660364 48.5445938 63.3344954 48.8408186 63.0381206 49.1662197 62.7740677 49.5172629 62.5450345 49.8912628 62.3574768 50.2824628 62.2084816 50.6869784 62.1001282 51.1006256 62.034468 51.5188679 62.0137559 51.9370606 62.035358 52.3507286 62.1003755 52.7552712 62.2085033 53.146172 62.3586469 53.5191299 62.5490382 53.8701131 62.7774199 54.1953904 63.0411375 54.4914896 63.3372369 54.7552046 63.6625114 54.9835875 64.0134969 55.173978 64.3864549 55.3241207 64.777354 55.4322485 65.1818968 55.497266 65.5955646"></polygon>
            <polygon id="Path" fill="#7FA8ED" fill-rule="nonzero" style="mix-blend-mode: multiply;" points="82.2641509 83.9270652 82.2451461 84.3469412 82.1850744 84.7646887 82.0767113 85.1699914 81.9236785 85.5589532 81.729497 85.9280835 81.5020109 86.2804576 81.2384249 86.6063262 80.9422003 86.9027005 80.616799 87.1667533 80.2657553 87.3957866 79.891756 87.5833443 79.5005561 87.7323394 79.0960397 87.8406928 78.6823926 87.9063531 78.2641513 87.9270652 77.8459582 87.905463 77.4322915 87.8404458 77.0277487 87.732318 76.6368487 87.5821748 76.2638904 87.3917838 75.9129055 87.1634012 75.5876304 86.8996854 75.2915309 86.603586 75.0278142 86.2783099 74.7994328 85.9273265 74.6090408 85.5543672 74.4588982 85.1634683 74.3507706 84.7589264 74.2857531 84.3452586 74.2641509 83.9270658 74.2831558 83.5071898 74.3432277 83.089442 74.4515904 82.6841395 74.6046227 82.2951779 74.7988039 81.9260476 75.0262905 81.5736733 75.2898768 81.2478047 75.5861016 80.9514299 75.9115027 80.687377 76.2625459 80.4583438 76.6365459 80.2707861 77.0277458 80.1217909 77.4322614 80.0134376 77.8459086 79.9477773 78.2641509 79.9270652 78.6823436 79.9486673 79.0960116 80.0136848 79.5005542 80.1218126 79.891455 80.2719563 80.264413 80.4623476 80.6153961 80.6907292 80.9406734 80.9544468 81.2367726 81.2505463 81.5004877 81.5758207 81.7288705 81.9268063 81.9192611 82.2997642 82.0694037 82.6906633 82.1775316 83.0952061 82.242549 83.508874"></polygon>
            <polygon id="Path" fill="#7FA8ED" fill-rule="nonzero" style="mix-blend-mode: multiply;" points="109.009434 87.6137398 108.990429 88.0336158 108.930357 88.4513633 108.821994 88.8566661 108.668962 89.2456278 108.47478 89.6147581 108.247294 89.9671322 107.983708 90.2930008 107.687483 90.5893751 107.362082 90.853428 107.011038 91.0824612 106.637039 91.2700189 106.245839 91.4190141 105.841323 91.5273674 105.427676 91.5930277 105.009434 91.6137398 104.591241 91.5921377 104.177575 91.5271204 103.773032 91.4189926 103.382132 91.2688495 103.009173 91.0784584 102.658189 90.8500758 102.332913 90.5863601 102.036814 90.2902606 101.773097 89.9649845 101.544716 89.6140011 101.354324 89.2410419 101.204181 88.8501429 101.096054 88.4456011 101.031036 88.0319332 101.009434 87.6137404 101.028439 87.1938645 101.088511 86.7761166 101.196873 86.3708142 101.349906 85.9818525 101.544087 85.6127222 101.771574 85.2603479 102.03516 84.9344793 102.331385 84.6381045 102.656786 84.3740517 103.007829 84.1450184 103.381829 83.9574607 103.773029 83.8084656 104.177544 83.7001122 104.591192 83.634452 105.009434 83.6137398 105.427627 83.635342 105.841295 83.7003594 106.245837 83.8084873 106.636738 83.9586309 107.009696 84.1490222 107.360679 84.3774038 107.685956 84.6411215 107.982056 84.9372209 108.245771 85.2624954 108.474153 85.6134809 108.664544 85.9864388 108.814687 86.3773379 108.922815 86.7818807 108.987832 87.1955486"></polygon>
            <polygon id="Path" fill="#7FA8ED" fill-rule="nonzero" style="mix-blend-mode: multiply;" points="64.4339623 99.41341 64.4149574 99.833286 64.3548857 100.251034 64.2465226 100.656336 64.0934898 101.045298 63.8993084 101.414428 63.6718222 101.766802 63.4082362 102.092671 63.1120116 102.389045 62.7866103 102.653098 62.4355666 102.882131 62.0615673 103.069689 61.6703674 103.218684 61.265851 103.327038 60.8522039 103.392698 60.4339626 103.41341 60.0157695 103.391808 59.6021029 103.326791 59.19756 103.218663 58.80666 103.06852 58.4337017 102.878129 58.0827169 102.649746 57.7574417 102.38603 57.4613423 102.089931 57.1976256 101.764655 56.9692442 101.413671 56.7788521 101.040712 56.6287095 100.649813 56.5205819 100.245271 56.4555644 99.8316035 56.4339623 99.4134106 56.4529671 98.9935347 56.513039 98.5757868 56.6214017 98.1704844 56.774434 97.7815227 56.9686152 97.4123925 57.1961018 97.0600181 57.4596881 96.7341495 57.7559129 96.4377747 58.081314 96.1737219 58.4323572 95.9446886 58.8063572 95.7571309 59.1975571 95.6081358 59.6020727 95.4997824 60.0157199 95.4341222 60.4339623 95.41341 60.8521549 95.4350122 61.2658229 95.5000296 61.6703655 95.6081575 62.0612663 95.7583011 62.4342243 95.9486924 62.7852074 96.177074 63.1104848 96.4407917 63.4065839 96.7368911 63.670299 97.0621656 63.8986818 97.4131511 64.0890724 97.786109 64.2392151 98.1770081 64.3473429 98.5815509 64.4123603 98.9952188"></polygon>
            <polygon id="Path" fill="#363636" fill-rule="nonzero" style="mix-blend-mode: multiply;" points="37.6886792 67.8513147 37.6696744 68.2711907 37.6096027 68.6889382 37.5012396 69.0942409 37.3482068 69.4832027 37.1540253 69.852333 36.9265392 70.2047071 36.6629532 70.5305757 36.3667286 70.82695 36.0413273 71.0910029 35.6902836 71.3200361 35.3162843 71.5075938 34.9250844 71.6565889 34.520568 71.7649423 34.1069209 71.8306026 33.6886796 71.8513147 33.2704865 71.8297125 32.8568198 71.7646953 32.452277 71.6565675 32.061377 71.5064243 31.6884187 71.3160333 31.3374338 71.0876507 31.0121587 70.8239349 30.7160592 70.5278355 30.4523425 70.2025594 30.2239611 69.851576 30.0335691 69.4786167 29.8834265 69.0877178 29.7752989 68.683176 29.7102814 68.2695081 29.6886792 67.8513153 29.7076841 67.4314393 29.767756 67.0136915 29.8761187 66.6083891 30.029151 66.2194274 30.2233322 65.8502971 30.4508188 65.4979228 30.7144051 65.1720542 31.0106299 64.8756794 31.336031 64.6116265 31.6870742 64.3825933 32.0610742 64.1950356 32.4522741 64.0460404 32.8567897 63.9376871 33.2704369 63.8720268 33.6886792 63.8513147 34.1068719 63.8729168 34.5205399 63.9379343 34.9250825 64.0460621 35.3159833 64.1962058 35.6889413 64.3865971 36.0399244 64.6149787 36.3652017 64.8786964 36.6613009 65.1747958 36.925016 65.5000702 37.1533988 65.8510558 37.3437894 66.2240137 37.493932 66.6149128 37.6020599 67.0194556 37.6670773 67.4331235"></polygon>
            <polygon id="Path" fill="#7FA8ED" fill-rule="nonzero" style="mix-blend-mode: multiply;" points="61.4622642 79.6625419 61.4432593 80.0824179 61.3831876 80.5001654 61.2748245 80.9054681 61.1217917 81.2944299 60.9276102 81.6635602 60.7001241 82.0159342 60.4365381 82.3418028 60.1403135 82.6381772 59.8149122 82.90223 59.4638685 83.1312633 59.0898692 83.318821 58.6986693 83.4678161 58.2941529 83.5761695 57.8805058 83.6418297 57.4622645 83.6625419 57.0440714 83.6409397 56.6304047 83.5759225 56.2258619 83.4677947 55.8349619 83.3176515 55.4620036 83.1272605 55.1110187 82.8988779 54.7857436 82.6351621 54.4896441 82.3390627 54.2259274 82.0137866 53.997546 81.6628032 53.807154 81.2898439 53.6570114 80.898945 53.5488838 80.4944031 53.4838663 80.0807353 53.4622642 79.6625425 53.481269 79.2426665 53.5413409 78.8249187 53.6497036 78.4196162 53.8027359 78.0306546 53.9969171 77.6615243 54.2244037 77.30915 54.48799 76.9832814 54.7842148 76.6869066 55.1096159 76.4228537 55.4606591 76.1938205 55.8346591 76.0062628 56.225859 75.8572676 56.6303746 75.7489142 57.0440218 75.683254 57.4622641 75.6625419 57.8804568 75.684144 58.2941248 75.7491615 58.6986674 75.8572893 59.0895682 76.0074329 59.4625262 76.1978242 59.8135093 76.4262059 60.1387866 76.6899235 60.4348858 76.986023 60.6986009 77.3112974 60.9269837 77.662283 61.1173743 78.0352409 61.2675169 78.42614 61.3756448 78.8306828 61.4406622 79.2443506"></polygon>
            <polygon id="Path" fill="#7FA8ED" fill-rule="nonzero" style="mix-blend-mode: multiply;" points="103.066038 93.0339605 103.047033 93.4538365 102.986961 93.871584 102.878598 94.2768867 102.725565 94.6658485 102.531384 95.0349788 102.303898 95.3873529 102.040312 95.7132215 101.744087 96.0095958 101.418686 96.2736487 101.067642 96.5026819 100.693643 96.6902396 100.302443 96.8392348 99.8979265 96.9475881 99.4842794 97.0132484 99.0660381 97.0339605 98.647845 97.0123584 98.2341783 96.9473411 97.8296355 96.8392133 97.4387354 96.6890702 97.0657771 96.4986791 96.7147923 96.2702965 96.3895171 96.0065808 96.0934177 95.7104813 95.829701 95.3852052 95.6013196 95.0342218 95.4109276 94.6612626 95.2607849 94.2703636 95.1526574 93.8658218 95.0876399 93.4521539 95.0660377 93.0339611 95.0850426 92.6140852 95.1451145 92.1963373 95.2534772 91.7910349 95.4065095 91.4020732 95.6006907 91.0329429 95.8281773 90.6805686 96.0917636 90.3547 96.3879884 90.0583252 96.7133895 89.7942724 97.0644327 89.5652391 97.4384327 89.3776814 97.8296326 89.2286863 98.2341482 89.1203329 98.6477954 89.0546726 99.0660377 89.0339605 99.4842304 89.0555627 99.8978984 89.1205801 100.302441 89.228708 100.693342 89.3788516 101.0663 89.5692429 101.417283 89.7976245 101.74256 90.0613422 102.038659 90.3574416 102.302374 90.6827161 102.530757 91.0337016 102.721148 91.4066595 102.871291 91.7975586 102.979418 92.2021014 103.044436 92.6157693"></polygon>
            <polygon id="Path" fill="#0051DC" fill-rule="nonzero" style="mix-blend-mode: multiply;" points="135.754717 95.8654191 135.735712 96.2852951 135.67564 96.7030426 135.567277 97.1083453 135.414245 97.4973071 135.220063 97.8664374 134.992577 98.2188114 134.728991 98.54468 134.432766 98.8410544 134.107365 99.1051072 133.756321 99.3341405 133.382322 99.5216982 132.991122 99.6706933 132.586606 99.7790467 132.172959 99.8447069 131.754717 99.8654191 131.336524 99.8438169 130.922858 99.7787997 130.518315 99.6706719 130.127415 99.5205287 129.754456 99.3301377 129.403472 99.1017551 129.078196 98.8380393 128.782097 98.5419399 128.51838 98.2166638 128.289999 97.8656804 128.099607 97.4927211 127.949464 97.1018222 127.841337 96.6972803 127.776319 96.2836125 127.754717 95.8654197 127.773722 95.4455437 127.833794 95.0277959 127.942156 94.6224934 128.095189 94.2335318 128.28937 93.8644015 128.516857 93.5120272 128.780443 93.1861586 129.076668 92.8897838 129.402069 92.6257309 129.753112 92.3966977 130.127112 92.20914 130.518312 92.0601448 130.922827 91.9517915 131.336475 91.8861312 131.754717 91.8654191 132.17291 91.8870212 132.586578 91.9520387 132.99112 92.0601665 133.382021 92.2103102 133.754979 92.4007015 134.105962 92.6290831 134.431239 92.8928007 134.727339 93.1889002 134.991054 93.5141746 135.219437 93.8651602 135.409827 94.2381181 135.55997 94.6290172 135.668098 95.03356 135.733115 95.4472279"></polygon>
            <polygon id="Path" fill="#0051DC" fill-rule="nonzero" style="mix-blend-mode: multiply;" points="19.8584906 10.0664459 19.8394857 10.4863219 19.779414 10.9040694 19.6710509 11.3093722 19.5180181 11.6983339 19.3238367 12.0674642 19.0963505 12.4198383 18.8327645 12.7457069 18.5365399 13.0420812 18.2111386 13.3061341 17.8600949 13.5351673 17.4860956 13.722725 17.0948957 13.8717202 16.6903793 13.9800735 16.2767322 14.0457338 15.8584909 14.0664459 15.4402978 14.0448438 15.0266312 13.9798265 14.6220883 13.8716987 14.2311883 13.7215556 13.85823 13.5311645 13.5072452 13.3027819 13.18197 13.0390662 12.8858706 12.7429667 12.6221539 12.4176906 12.3937725 12.0667072 12.2033804 11.693748 12.0532378 11.302849 11.9451102 10.8983072 11.8800927 10.4846393 11.8584906 10.0664465 11.8774954 9.64657056 11.9375673 9.22882273 12.04593 8.82352027 12.1989623 8.4345586 12.3931435 8.06542834 12.6206301 7.71305403 12.8842164 7.38718542 13.1804412 7.09081062 13.5058423 6.82675775 13.8568855 6.59772452 14.2308855 6.41016682 14.6220854 6.26117166 15.026601 6.15281829 15.4402482 6.08715805 15.8584906 6.06644591 16.2766833 6.08804807 16.6903512 6.15306553 17.0948938 6.26119336 17.4857946 6.41133698 17.8587526 6.60172829 18.2097357 6.83010992 18.5350131 7.09382757 18.8311122 7.38992699 19.0948273 7.71520146 19.3232101 8.06618699 19.5136007 8.43914493 19.6637434 8.830044 19.7718712 9.2345868 19.8368887 9.64825469"></polygon>
            <polygon id="Path" fill="#0051DC" fill-rule="nonzero" style="mix-blend-mode: multiply;" points="64.4339623 32.9492539 64.4149574 33.36913 64.3548857 33.7868774 64.2465226 34.1921802 64.0934898 34.581142 63.8993084 34.9502722 63.6718222 35.3026463 63.4082362 35.6285149 63.1120116 35.9248892 62.7866103 36.1889421 62.4355666 36.4179753 62.0615673 36.605533 61.6703674 36.7545282 61.265851 36.8628816 60.8522039 36.9285418 60.4339626 36.9492539 60.0157695 36.9276518 59.6021029 36.8626346 59.19756 36.7545067 58.80666 36.6043636 58.4337017 36.4139725 58.0827169 36.1855899 57.7574417 35.9218742 57.4613423 35.6257748 57.1976256 35.3004986 56.9692442 34.9495153 56.7788521 34.576556 56.6287095 34.1856571 56.5205819 33.7811152 56.4555644 33.3674474 56.4339623 32.9492546 56.4529671 32.5293786 56.513039 32.1116308 56.6214017 31.7063283 56.774434 31.3173666 56.9686152 30.9482364 57.1961018 30.5958621 57.4596881 30.2699935 57.7559129 29.9736187 58.081314 29.7095658 58.4323572 29.4805326 58.8063572 29.2929749 59.1975571 29.1439797 59.6020727 29.0356263 60.0157199 28.9699661 60.4339623 28.9492539 60.8521549 28.9708561 61.2658229 29.0358736 61.6703655 29.1440014 62.0612663 29.294145 62.4342243 29.4845363 62.7852074 29.712918 63.1104848 29.9766356 63.4065839 30.272735 63.670299 30.5980095 63.8986818 30.948995 64.0890724 31.321953 64.2392151 31.712852 64.3473429 32.1173948 64.4123603 32.5310627"></polygon>
            <polygon id="Path" fill="#0051DC" fill-rule="nonzero" style="mix-blend-mode: multiply;" points="91.1792453 41.1662623 91.1602405 41.5861383 91.1001688 42.0038858 90.9918056 42.4091885 90.8387728 42.7981503 90.6445914 43.1672806 90.4171052 43.5196547 90.1535192 43.8455233 89.8572946 44.1418976 89.5318933 44.4059504 89.1808496 44.6349837 88.8068504 44.8225414 88.4156504 44.9715365 88.011134 45.0798899 87.5974869 45.1455502 87.1792456 45.1662623 86.7610525 45.1446601 86.3473859 45.0796429 85.942843 44.9715151 85.551943 44.8213719 85.1789847 44.6309809 84.8279999 44.4025983 84.5027247 44.1388825 84.2066253 43.8427831 83.9429086 43.517507 83.7145272 43.1665236 83.5241352 42.7935643 83.3739925 42.4026654 83.2658649 41.9981235 83.2008474 41.5844557 83.1792453 41.1662629 83.1982501 40.7463869 83.258322 40.3286391 83.3666847 39.9233366 83.519717 39.534375 83.7138982 39.1652447 83.9413848 38.8128704 84.2049711 38.4870018 84.501196 38.190627 84.826597 37.9265741 85.1776402 37.6975409 85.5516402 37.5099832 85.9428401 37.360988 86.3473557 37.2526347 86.7610029 37.1869744 87.1792453 37.1662623 87.597438 37.1878644 88.0111059 37.2528819 88.4156485 37.3610097 88.8065494 37.5111534 89.1795073 37.7015447 89.5304904 37.9299263 89.8557678 38.1936439 90.151867 38.4897434 90.415582 38.8150178 90.6439648 39.1660034 90.8343554 39.5389613 90.9844981 39.9298604 91.0926259 40.3344032 91.1576434 40.7480711"></polygon>
            <polygon id="Path" fill="#0051DC" fill-rule="nonzero" style="mix-blend-mode: multiply;" points="114.95283 64.8002736 114.933825 65.2201496 114.873754 65.6378971 114.765391 66.0431999 114.612358 66.4321617 114.418176 66.8012919 114.19069 67.153666 113.927104 67.4795346 113.63088 67.7759089 113.305478 68.0399618 112.954435 68.268995 112.580435 68.4565527 112.189235 68.6055479 111.784719 68.7139012 111.371072 68.7795615 110.952831 68.8002736 110.534637 68.7786715 110.120971 68.7136542 109.716428 68.6055264 109.325528 68.4553833 108.95257 68.2649922 108.601585 68.0366096 108.27631 67.7728939 107.98021 67.4767944 107.716493 67.1515183 107.488112 66.8005349 107.29772 66.4275757 107.147577 66.0366767 107.03945 65.6321349 106.974432 65.2184671 106.95283 64.8002742 106.971835 64.3803983 107.031907 63.9626504 107.14027 63.557348 107.293302 63.1683863 107.487483 62.7992561 107.71497 62.4468817 107.978556 62.1210131 108.274781 61.8246383 108.600182 61.5605855 108.951225 61.3315522 109.325225 61.1439945 109.716425 60.9949994 110.120941 60.886646 110.534588 60.8209858 110.95283 60.8002736 111.371023 60.8218758 111.784691 60.8868932 112.189233 60.9950211 112.580134 61.1451647 112.953092 61.335556 113.304075 61.5639376 113.629353 61.8276553 113.925452 62.1237547 114.189167 62.4490292 114.41755 62.8000147 114.60794 63.1729726 114.758083 63.5638717 114.866211 63.9684145 114.931228 64.3820824"></polygon>
        </g>
    </g>
</svg>