<?xml version="1.0" encoding="UTF-8"?>
<svg width="144px" height="113px" viewBox="0 0 144 113" version="1.1" xmlns="http://www.w3.org/2000/svg" xmlns:xlink="http://www.w3.org/1999/xlink">
    <!-- Generator: Sketch 58 (84663) - https://sketch.com -->
    <title>choropleth</title>
    <desc>Created with Sketch.</desc>
    <g id="choropleth" stroke="none" stroke-width="1" fill="none" fill-rule="evenodd">
        <polygon id="Path" stroke="#FFFFFF" fill="#0051DC" fill-rule="nonzero" points="82.1730608 64.484831 91.7938187 62.230741 91.8383356 62.4017777 93.4415521 68.5614365 93.2300237 69.6520219 92.5107001 69.6556784 89.3369084 71.3208124 85.2607037 72.0999283 83.8761614 73.9597757 82.1198002 74.8740311 80.198248 76.6113764 79.3569876 75.539067 80.9931227 73.9332706 80.2344987 73.2063297 78.8345039 65.177572"></polygon>
        <polygon id="Path" stroke="#FFFFFF" fill="#0051DC" fill-rule="nonzero" points="69.2380454 92.2078197 68.7766185 93.6389108 68.0995747 94.5120347 68.6389376 96.1470037 70.1611381 97.4458679 71.0390324 99.9737931 73.3549037 102.304214 74.1737841 102.242578 75.3399828 105.794728 70.0874366 106.832096 66.4667582 93.7183189 67.5659191 92.2717171"></polygon>
        <polygon id="Path" stroke="#FFFFFF" fill="#0051DC" fill-rule="nonzero" points="58.0753758 103.496144 59.3024489 104.331903 58.4642723 105.647006 57.5415161 104.266616"></polygon>
        <polygon id="Path" stroke="#FFFFFF" fill="#0051DC" fill-rule="nonzero" points="97.2062737 49.2752247 96.1037342 48.7827294 95.949393 47.7278774 94.4409711 46.8569621 90.2916152 33.382747 88.1393074 26.8040604 90.8893299 24.5437963 90.1747666 23.9504766 90.9278829 22.0470695 91.9479157 20.9780204 91.5406527 20.4234322 92.4157055 19.1504774 91.5630715 17.447107 91.5171264 14.5517861 92.35749 13.3480752 91.9823023 10.3647692 95.17685 0.980640873 96.5356126 0.949220546 97.1655863 2.82519046 98.2817885 3.22628332 100.212646 1.44367669 101.627602 1.02208709 102.403602 3.19744231e-14 104.84003 1.02563891 106.395146 2.01172487 109.969628 13.4205347 110.651096 16.2068012 113.338201 16.1752754 113.348982 17.4576238 114.322324 18.3811524 114.123552 19.5454781 115.631766 20.7939132 116.86494 20.0411142 119.306853 23.2647899 118.312312 25.3586323 117.248517 25.0151572 116.882804 26.3566146 115.764187 26.3959004 115.93888 27.3851214 114.552659 27.688493 113.067327 30.5320867 112.090221 29.1730504 111.299112 29.2890384 112.148748 30.8096453 110.705547 32.1003697 109.91974 30.9267314 109.320914 31.8393785 107.439893 32.3951158 106.953251 30.8873624 105.933053 31.5530232 106.445851 32.5643131 106.059919 35.1219318 106.441382 35.6833984 105.43192 37.321127 103.931054 37.2645177 103.495524 38.7940359 102.411999 39.2858105 101.785208 40.6231915 100.587104 40.7165029 99.9459602 39.6763369 98.7895951 41.9502977 99.5511756 42.9582032 98.4411199 43.6930639 98.6259087 44.6785442 97.5667146 46.2505428"></polygon>
        <path d="M68.7963717,112.729369 L68.6176972,112.767521 L68.3943417,112.815154 L68.7963717,112.729369 Z M36.9837936,99.4880911 L66.4667582,93.7183189 L70.0874366,106.832096 L75.3399828,105.794728 L74.7313687,110.590472 L73.5220277,111.039315 L71.4307615,112.161845 L69.7888696,113 L69.4612034,111.257869 L68.6440689,110.708166 L69.417892,109.756669 L67.8016528,108.290908 L67.5619305,109.127208 L65.8355405,109.311905 L64.8568246,107.525898 L65.38919,107.413921 L64.9097646,104.919348 L65.2325783,103.824988 L63.820391,100.622091 L64.2837856,98.4721597 L65.5687278,97.8366732 L65.3554971,95.7688772 L64.3995837,96.2141708 L64.5767381,97.2631143 L62.7534471,99.035893 L62.3924791,100.378347 L62.899595,103.470033 L62.4050342,105.081051 L63.2638565,107.436356 L64.6794259,108.890829 L64.8121761,110.19071 L65.7471204,111.322477 L65.5721983,112.264528 L63.3494482,110.97784 L60.509635,110.716617 L59.379521,109.258353 L58.0530185,110.489554 L57.2196338,109.330993 L58.0939352,107.46905 L58.4642723,105.647006 L59.3024489,104.331903 L58.0753758,103.496144 L57.5415161,104.266616 L56.2842685,103.494812 L54.5037313,103.30678 L54.1946092,101.742506 L53.1431049,101.04684 L51.8772236,101.113915 L50.3810965,98.3366614 L49.021896,98.5983879 L47.475082,97.8715617 L46.8835536,98.8247907 L45.5565077,99.0140282 L45.4659365,100.232269 L42.9536912,99.9162888 L41.6562079,101.773318 L40.5365368,101.615381 L39.2714332,103.701013 L37.8553813,104.970472 L36.9837936,99.4880911 Z" id="Shape" stroke="#FFFFFF" fill="#7FA8ED" fill-rule="nonzero"></path>
        <polygon id="Path" stroke="#FFFFFF" fill="#7FA8ED" fill-rule="nonzero" points="96.0820599 51.4698754 96.8686393 51.4397565 97.6503625 53.1786488 97.7210965 54.7451625 96.889988 56.4334802 97.2774497 58.0366221 98.9993484 57.8146368 100.445622 59.1907535 100.636265 60.5432588 101.56286 60.6561251 101.973703 61.8264974 104.385036 62.26125 106.576352 60.6086294 106.432572 62.1793398 103.141374 64.4394414 101.816268 64.8637829 100.756939 64.1139042 99.5775185 64.7388664 99.7353748 65.4899691 98.4309151 66.3291709 97.3410771 64.6071759 97.0404597 64.3214261 96.0480235 63.7927802 94.980627 61.4547419 93.8541581 61.7522717 91.8383356 62.4017777 91.7938187 62.230741 82.1730608 64.484831 78.8345039 65.177572 78.5701187 64.8171914 78.7396023 57.5061033 84.9161754 56.1539083 93.7714035 54.221497 94.3389597 53.0348769"></polygon>
        <polygon id="Path" stroke="#FFFFFF" fill="#363636" fill-rule="nonzero" points="88.1393074 26.8040604 90.2916152 33.382747 94.4409711 46.8569621 95.949393 47.7278774 96.1037342 48.7827294 97.2062737 49.2752247 96.8686393 51.4397565 96.0820599 51.4698754 94.3389597 53.0348769 93.7714035 54.221497 84.9161754 56.1539083 84.0523324 55.5222829 83.7468354 53.9611032 84.2629541 53.224065 83.8055475 51.7624508 83.2683193 47.2292607 84.0525857 44.8469869 84.1059332 42.3478939 84.5358994 41.3280843 83.8365181 38.7812965 86.0479552 37.1771437 86.7943033 35.10193 85.6649173 33.5803545 86.2191035 31.6169579 85.870355 30.6184786 86.2030369 27.6840619 87.9483945 27.5218071"></polygon>
        <polygon id="Path" stroke="#FFFFFF" fill="#363636" fill-rule="nonzero" points="75.306048 76.0705257 78.2541194 76.953108 78.0331682 80.2177048 76.910166 81.2082846 76.5988494 82.9773051 78.935274 83.2786902 79.3917303 84.4443668 79.7659722 90.2990809 78.2633296 95.0746063 76.9245781 96.6550125 76.0818975 99.6333019 74.9449836 98.0741037 72.4290794 97.7304682 69.0760296 96.0515359 68.5609218 94.5322474 68.4669059 94.3110383 68.7766185 93.6389108 69.2380454 92.2078197 71.1753717 90.8716434 71.1255543 90.0359669 73.1614802 87.7630439 73.3413527 86.7538722 70.6184839 85.1295356 70.2358481 83.8243993 69.1697861 83.6995569 68.8148714 82.5091806 69.6038694 80.3988318 68.7176804 79.4485594 70.189705 76.8211514 70.3551083 75.5745903 71.2052054 74.595372"></polygon>
        <polygon id="Path" stroke="#FFFFFF" fill="#363636" fill-rule="nonzero" points="72.4186698 34.0254455 73.0248586 36.1691788 73.0919501 38.2036702 74.2361033 39.9170386 74.5190334 41.9613804 74.1772269 44.2788344 75.521816 46.9739022 75.3205247 47.9294283 76.9253256 49.353181 78.4336905 56.611628 78.7396023 57.5061033 78.5701187 64.8171914 78.8345039 65.177572 80.2344987 73.2063297 80.9931227 73.9332706 79.3569876 75.539067 80.198248 76.6113764 83.7280974 76.6677933 84.254891 75.870853 87.1039191 75.1662773 88.4623547 74.4613195 90.416835 72.2022534 90.8923094 73.359129 92.2536749 73.558561 89.8011274 75.827085 84.356556 79.6114641 81.9431502 80.6820522 80.2453709 80.9671049 79.1250341 81.7787565 78.0331682 80.2177048 78.2541194 76.953108 75.306048 76.0705257 71.2052054 74.595372 70.6954134 73.9254006 69.4941496 74.1372172 67.6941358 72.668852 67.5156843 71.0781211 66.3166778 70.0779826 65.7384591 70.2668721 64.5765778 69.0153885 30.5285221 75.7050293 30.067881 73.034978 30.0378465 72.8608866 34.2405958 69.0132576 34.7381683 67.4288017 36.0724203 66.17016 35.1587941 64.4825881 34.4676944 64.2490589 33.4861263 61.4381999 37.7205405 59.4074056 41.6810514 58.717845 43.3158601 58.7013681 45.246192 59.5219937 46.2361491 58.8469793 49.5297552 58.2459208 51.3683492 57.0898248 53.0853707 54.7526772 54.4367277 54.4088339 53.8714185 51.5259932 54.2174146 49.712125 52.2936544 48.917802 52.3849111 47.5193329 54.9884014 45.1070547 55.7543978 43.3221891 58.5578907 39.0483679 61.5098505 36.5260678 66.5667035 35.6620941"></polygon>
        <polygon id="Path" stroke="#FFFFFF" fill="#0051DC" fill-rule="nonzero" points="30.067881 73.034978 30.5285221 75.7050293 64.5765778 69.0153885 65.7384591 70.2668721 66.3166778 70.0779826 67.5156843 71.0781211 67.6941358 72.668852 69.4941496 74.1372172 70.6954134 73.9254006 71.2052054 74.595372 70.3551083 75.5745903 70.189705 76.8211514 68.7176804 79.4485594 69.6038694 80.3988318 68.8148714 82.5091806 69.1697861 83.6995569 70.2358481 83.8243993 70.6184839 85.1295356 73.3413527 86.7538722 73.1614802 87.7630439 71.1255543 90.0359669 71.1753717 90.8716434 69.2380454 92.2078197 67.5659191 92.2717171 66.4667582 93.7183189 36.9837936 99.4880911 28.6341758 100.907283 27.0357308 91.1810373 24.6931467 76.9268412 24.6931467 76.9268412 26.0447716 76.1062386 30.0378465 72.8608866"></polygon>
        <path d="M97.3410771,64.6071759 L98.4309151,66.3291709 L96.9792913,66.9605309 L97.3410771,64.6071759 Z M93.8541581,61.7522717 L94.980627,61.4547419 L96.0480235,63.7927802 L97.0404597,64.3214261 L96.0736445,64.3957109 L95.6842849,66.1450014 L96.0038842,68.3775324 L93.2300237,69.6520219 L93.4415521,68.5614365 L91.8383356,62.4017777 L93.8541581,61.7522717 Z" id="Shape" stroke="#FFFFFF" fill="#7FA8ED" fill-rule="nonzero"></path>
        <polygon id="Path" stroke="#FFFFFF" fill="#7FA8ED" fill-rule="nonzero" points="85.870355 30.6184786 86.2191035 31.6169579 85.6649173 33.5803545 86.7943033 35.10193 86.0479552 37.1771437 83.8365181 38.7812965 84.5358994 41.3280843 84.1059332 42.3478939 84.0525857 44.8469869 83.2683193 47.2292607 83.8055475 51.7624508 84.2629541 53.224065 83.7468354 53.9611032 84.0523324 55.5222829 84.9161754 56.1539083 78.7396023 57.5061033 78.4336905 56.611628 76.9253256 49.353181 75.3205247 47.9294283 75.521816 46.9739022 74.1772269 44.2788344 74.5190334 41.9613804 74.2361033 39.9170386 73.0919501 38.2036702 73.0248586 36.1691788 72.4186698 34.0254455 80.0222732 32.2545941"></polygon>
    </g>
</svg>